<?xml version="1.0" encoding="UTF-8"?>
<svg id="Layer_2" data-name="Layer 2" xmlns="http://www.w3.org/2000/svg" viewBox="0 0 523.19 402.47">
  <defs>
    <style>
      .cls-1 {
        fill: #fff;
      }
    </style>
  </defs>
  <g id="Layer_1-2" data-name="Layer 1">
    <g>
      <path class="cls-1" d="M466.11,57.47C428.07,19.17,380.37,0,323.01,0s-105.07,19.17-143.11,57.47c-17.31,17.43-30.68,36.84-40.1,58.25,16.7,24.69,25.05,53.2,25.05,85.52s-8.35,60.83-25.07,85.5c9.44,21.41,22.81,40.84,40.12,58.27,38.04,38.3,85.76,57.45,143.11,57.45s105.05-19.15,143.09-57.45c38.04-38.32,57.08-86.23,57.08-143.77s-19.04-105.47-57.08-143.77ZM389.36,273.26c-17.99,19.45-40.12,29.16-66.35,29.16s-48.36-9.71-66.35-29.16c-18.01-19.43-27-43.44-27-72.02s9-52.61,27-72.04c17.99-19.43,40.1-29.15,66.35-29.15s48.36,9.72,66.35,29.15c17.99,19.43,26.99,43.44,26.99,72.04s-8.99,52.59-26.99,72.02Z"/>
      <path class="cls-1" d="M148.3,201.24c0,32.32-8.35,60.83-25.07,85.5-5.3,7.87-11.46,15.33-18.47,22.42-28.37,28.71-63.28,43.37-104.76,44.02v-75.53h.52c20.36,0,36.66-7.05,48.82-21.15,12.18-14.1,18.27-32.52,18.27-55.26s-6.16-41.16-18.47-55.28c-12.32-14.08-28.53-21.15-48.62-21.15h-.52V49.28c41.48.65,76.39,15.32,104.76,44.02,7.01,7.09,13.17,14.55,18.49,22.42,16.7,24.69,25.05,53.2,25.05,85.52Z"/>
    </g>
  </g>
</svg>